<?xml version="1.0" encoding="utf-8"?>
<!-- Generator: Adobe Illustrator 18.0.0, SVG Export Plug-In . SVG Version: 6.00 Build 0)  -->
<!DOCTYPE svg PUBLIC "-//W3C//DTD SVG 1.1//EN" "http://www.w3.org/Graphics/SVG/1.1/DTD/svg11.dtd">
<svg version="1.1" id="Layer_1" xmlns="http://www.w3.org/2000/svg" xmlns:xlink="http://www.w3.org/1999/xlink" x="0px" y="0px"
	 viewBox="0 0 1920 1080" enable-background="new 0 0 1920 1080" xml:space="preserve">
<g>
	<path fill="#352A13" d="M1010.6,108.5c-11.2,0-19.5,4.6-19.5,15.5c0,8.3,5.5,14,18.9,14c11.4,0,19.1-5.6,19.1-14.3
		C1029.1,113.7,1022.2,108.5,1010.6,108.5L1010.6,108.5z M988.3,185.8c-2.6,2.7-5.3,5.6-5.3,8.9c0,6.7,10.4,8.8,24.6,8.8
		c11.8,0,27.8-0.7,27.8-9.8c0-5.4-7.7-5.7-17.5-6.2L988.3,185.8L988.3,185.8z M1048.4,109c3.7,3.9,7.5,9.3,7.5,17
		c0,18.7-17.7,29.7-43.3,29.7c-6.5,0-12.4-0.7-16.1-1.5l-6.7,8.9l19.9,1c35.2,1.9,55.9,2.7,55.9,25.1c0,19.4-20.5,30.3-55.9,30.3
		c-36.8,0-50.8-7.8-50.8-21.1c0-7.6,4.1-11.6,11.2-17.2c-6.7-2.4-8.9-6.6-8.9-11.1c0-3.7,2.2-7.1,5.9-10.3
		c3.7-3.2,7.7-6.4,12.6-10.1c-10-4-17.5-12.8-17.5-25.3c0-19.4,15.4-32.7,46.5-32.7c8.7,0,14,0.7,18.7,1.7h39.6v14.3L1048.4,109"/>
	<path fill="#352A13" d="M1102.9,78.3c-11.6,0-18.3-5.6-18.3-15.2c0-9.6,6.7-14.8,18.3-14.8c11.8,0,18.5,5.2,18.5,14.8
		C1121.4,72.8,1114.7,78.3,1102.9,78.3z M1076.7,179.6v-13.3l10.4-1.2c2.8-0.3,3.3-0.8,3.3-3.4v-49.6c0-1.9-0.6-3-2.6-3.5l-11-3.2
		l2.2-13.7h42.1v70c0,2.7,0.2,3,3.3,3.4l10.4,1.2v13.3L1076.7,179.6"/>
	<path fill="#352A13" d="M1214.9,173.1c-8.7,3.5-21.5,6.7-33.1,6.7c-24.2,0-33.3-8.1-33.3-27.1v-44.2c0-1,0-1.7-1.6-1.7h-14.2v-15
		c17.9-1.7,25-9.1,27.2-27.5h19.3v23.9c0,1.2,0,1.7,1.6,1.7h28.6v16.9h-30.3v40.3c0,9.9,2.8,13.8,13.8,13.8c5.7,0,11.6-1.2,16.5-2.7
		L1214.9,173.1"/>
	<path fill="#EF3F2F" d="M913.9,128.9l-92.9-77.1c-5.3-4.4-14-4.4-19.4,0l-19.3,16l24.5,20.3c5.7-1.6,12.2-0.5,16.7,3.2
		c4.6,3.8,5.8,9.2,3.9,14l23.6,19.6c5.7-1.6,12.3-0.6,16.8,3.2c6.4,5.3,6.4,13.8,0,19.1c-6.4,5.3-16.7,5.3-23.1,0
		c-4.8-4-6-9.8-3.5-14.7l-22-18.3l0,48c1.6,0.6,3,1.5,4.3,2.6c6.4,5.3,6.4,13.8,0,19.1c-6.4,5.3-16.7,5.3-23.1,0
		c-6.4-5.3-6.4-13.9,0-19.1c1.6-1.3,3.4-2.3,5.3-3v-48.5c-1.9-0.7-3.8-1.6-5.3-3c-4.8-4-6-9.9-3.5-14.8l-24.1-20l-63.7,52.9
		c-5.4,4.4-5.4,11.6,0,16.1l92.9,77.1c5.3,4.4,14,4.4,19.4,0l92.5-76.7C919.2,140.5,919.2,133.3,913.9,128.9"/>
</g>
<g>
	<path d="M590.4,255.3v9.2h14.9v5.2h-14.9v13.8h-5.7v-33.6h22.4l0,5.3H590.4z"/>
	<path d="M618.3,283.6h-5.4V248h5.4V283.6z"/>
	<path d="M643.9,271.9v-13.8h5.4v25.5h-5.4v-4.7c-0.9,1.6-2.1,2.8-3.6,3.7c-1.5,0.9-3.2,1.3-4.9,1.3c-2.9,0-5.2-0.9-7-2.6
		c-1.8-1.8-2.7-4.3-2.7-7.6v-15.6h5.4v14c0,4.7,2,7.1,5.9,7.1c1.9,0,3.5-0.6,4.8-1.8C643.2,276.1,643.9,274.3,643.9,271.9z"/>
	<path d="M661.2,258.1l5.5,8.4l5.7-8.4h6.4l-8.9,12.5l9.3,13.1h-6.6l-6.1-8.5l-6,8.5h-6.3l9.1-13l-8.6-12.5H661.2z"/>
	<path d="M704.3,280.2c-2.6,2.5-5.8,3.8-9.6,3.8s-7-1.3-9.6-3.8c-2.6-2.5-3.8-5.7-3.8-9.3c0-3.7,1.3-6.8,3.8-9.3
		c2.6-2.5,5.8-3.8,9.6-3.8s7,1.3,9.6,3.8c2.6,2.5,3.8,5.7,3.8,9.3C708.1,274.5,706.8,277.6,704.3,280.2z M688.9,276.9
		c1.5,1.6,3.4,2.3,5.8,2.3c2.3,0,4.3-0.8,5.8-2.3c1.5-1.6,2.3-3.6,2.3-6c0-2.5-0.8-4.5-2.3-6c-1.5-1.6-3.4-2.3-5.8-2.3
		c-2.3,0-4.3,0.8-5.8,2.3c-1.5,1.6-2.3,3.6-2.3,6C686.6,273.3,687.4,275.3,688.9,276.9z"/>
	<path d="M741,257.7c3.4,0,6.4,1.2,8.8,3.6c2.4,2.4,3.6,5.5,3.6,9.5s-1.2,7.1-3.6,9.6c-2.4,2.5-5.2,3.7-8.4,3.7
		c-3.2,0-6.1-1.4-8.7-4.2v3.8h-5.4V248h5.4v14.5C734.8,259.3,737.6,257.7,741,257.7z M732.6,270.9c0,2.4,0.7,4.4,2.2,6
		c1.5,1.6,3.3,2.3,5.4,2.3s4-0.8,5.5-2.3c1.6-1.5,2.4-3.5,2.4-6c0-2.4-0.8-4.5-2.3-6.1c-1.5-1.6-3.4-2.4-5.5-2.4
		c-2.1,0-4,0.8-5.4,2.4C733.4,266.4,732.6,268.5,732.6,270.9z"/>
	<path d="M780.3,283.6h-4.9v-3.4c-2.1,2.5-4.9,3.8-8.5,3.8c-2.7,0-4.9-0.8-6.6-2.3c-1.7-1.5-2.6-3.5-2.6-6c0-2.5,0.9-4.4,2.8-5.6
		c1.9-1.2,4.4-1.9,7.5-1.9h7v-1c0-3.4-1.9-5.1-5.7-5.1c-2.4,0-4.8,0.9-7.4,2.6l-2.4-3.4c3.1-2.5,6.6-3.7,10.6-3.7
		c3,0,5.5,0.8,7.4,2.3c1.9,1.5,2.9,3.9,2.9,7.2V283.6z M774.9,274.1v-2.2h-6c-3.9,0-5.8,1.2-5.8,3.6c0,1.2,0.5,2.2,1.4,2.9
		c1,0.7,2.3,1,4,1s3.2-0.5,4.5-1.4C774.3,277,774.9,275.7,774.9,274.1z M772.6,254.8h-4.9l5.1-7l5.7,2.4L772.6,254.8z"/>
	<path d="M806,276c0,2.4-0.9,4.4-2.6,5.8c-1.8,1.5-4,2.2-6.8,2.2c-1.9,0-3.8-0.3-5.8-1s-3.8-1.6-5.3-2.8l2.6-4.2
		c3,2.2,5.9,3.4,8.6,3.4c1.2,0,2.2-0.3,2.9-0.8c0.7-0.6,1.1-1.3,1.1-2.1c0-1.3-1.7-2.4-5.1-3.5c-0.3-0.1-0.4-0.2-0.6-0.2
		c-5.3-1.4-8-3.8-8-7.2c0-2.4,0.9-4.3,2.8-5.7c1.8-1.4,4.2-2.1,7.2-2.1s5.7,0.9,8.4,2.6l-2,4c-2.1-1.4-4.3-2.1-6.8-2.1
		c-1.3,0-2.3,0.2-3.1,0.7c-0.8,0.5-1.2,1.2-1.2,2.1c0,0.8,0.4,1.4,1.2,1.8c0.6,0.3,1.4,0.6,2.4,0.8c1,0.3,2,0.5,2.8,0.8
		c0.8,0.3,1.6,0.5,2.3,0.9c0.8,0.3,1.6,0.8,2.4,1.3C805.1,271.7,806,273.5,806,276z"/>
	<path d="M812.4,253c-0.7-0.7-1-1.5-1-2.4c0-0.9,0.3-1.7,1-2.4c0.7-0.7,1.5-1,2.4-1c0.9,0,1.7,0.3,2.4,1c0.7,0.7,1,1.5,1,2.4
		c0,0.9-0.3,1.7-1,2.4c-0.7,0.7-1.5,1-2.4,1C813.9,254,813.1,253.7,812.4,253z M817.4,283.6h-5.4v-25.5h5.4V283.6z"/>
	<path d="M836.5,284c-3.6,0-6.6-1.2-9.2-3.6c-2.6-2.4-3.8-5.6-3.8-9.5c0-3.9,1.3-7.1,4-9.5c2.7-2.4,5.9-3.7,9.8-3.7
		c3.8,0,7.1,1.3,9.7,4l-3.2,3.9c-2.2-1.9-4.4-2.9-6.7-2.9s-4.2,0.7-5.8,2.2c-1.6,1.5-2.5,3.4-2.5,5.8s0.8,4.3,2.4,6s3.6,2.4,6,2.4
		s4.6-1.1,6.7-3.3l3.2,3.5C844.2,282.4,840.6,284,836.5,284z"/>
	<path d="M873.7,280.2c-2.6,2.5-5.8,3.8-9.6,3.8c-3.8,0-7-1.3-9.6-3.8c-2.6-2.5-3.8-5.7-3.8-9.3c0-3.7,1.3-6.8,3.8-9.3
		c2.6-2.5,5.8-3.8,9.6-3.8c3.8,0,7,1.3,9.6,3.8c2.6,2.5,3.8,5.7,3.8,9.3C877.5,274.5,876.3,277.6,873.7,280.2z M858.3,276.9
		c1.5,1.6,3.4,2.3,5.8,2.3c2.3,0,4.3-0.8,5.8-2.3c1.5-1.6,2.3-3.6,2.3-6c0-2.5-0.8-4.5-2.3-6c-1.5-1.6-3.4-2.3-5.8-2.3
		c-2.3,0-4.3,0.8-5.8,2.3c-1.5,1.6-2.3,3.6-2.3,6C856,273.3,856.8,275.3,858.3,276.9z"/>
	<path d="M898.8,280.3c-2.4-2.4-3.6-5.6-3.6-9.6c0-4,1.2-7.1,3.7-9.5c2.5-2.4,5.4-3.6,8.8-3.6s6.2,1.4,8.2,4.3v-14h5.4v35.6h-5.4
		v-3.8c-2,2.8-4.9,4.2-8.7,4.2C904,284,901.2,282.8,898.8,280.3z M900.5,271c0,2.4,0.8,4.4,2.4,6c1.6,1.5,3.4,2.3,5.5,2.3
		s3.9-0.8,5.4-2.3c1.5-1.6,2.2-3.5,2.2-6c0-2.4-0.7-4.5-2.2-6.1s-3.3-2.4-5.4-2.4c-2.1,0-4,0.8-5.5,2.4
		C901.3,266.5,900.5,268.5,900.5,271z"/>
	<path d="M952.8,273.2h-20c0.1,1.9,1,3.4,2.5,4.5c1.6,1.1,3.4,1.7,5.4,1.7c3.2,0,5.6-1,7.3-3l3.1,3.4c-2.8,2.8-6.3,4.3-10.8,4.3
		c-3.6,0-6.6-1.2-9.1-3.6c-2.5-2.4-3.8-5.6-3.8-9.6c0-4,1.3-7.2,3.8-9.6c2.6-2.4,5.6-3.6,9-3.6c3.5,0,6.4,1,8.9,3.1
		c2.4,2.1,3.6,5,3.6,8.7V273.2z M932.8,269h14.6c0-2.1-0.7-3.8-2-4.9s-3-1.7-5-1.7s-3.7,0.6-5.3,1.8
		C933.6,265.3,932.8,266.9,932.8,269z"/>
	<path d="M978.5,256v2.1h6.7v4.3h-6.7v21.2h-5.4v-21.2h-3.2v-4.3h3.2v-2c0-2.7,0.8-4.8,2.4-6.4s3.6-2.4,5.9-2.4
		c2.3,0,4.4,0.8,6.3,2.5l-2.2,3.8c-1.1-1.1-2.2-1.7-3.3-1.7c-1.2,0-2,0.4-2.7,1.1C978.8,253.8,978.5,254.7,978.5,256z"/>
	<path d="M1008.2,271.9v-13.8h5.4v25.5h-5.4v-4.7c-0.9,1.6-2.1,2.8-3.6,3.7c-1.5,0.9-3.2,1.3-4.9,1.3c-2.9,0-5.2-0.9-7-2.6
		c-1.8-1.8-2.7-4.3-2.7-7.6v-15.6h5.4v14c0,4.7,2,7.1,5.9,7.1c1.9,0,3.5-0.6,4.8-1.8C1007.5,276.1,1008.2,274.3,1008.2,271.9z"/>
	<path d="M1026.8,269.8v13.8h-5.4v-25.5h5.4v4.7c0.9-1.6,2.1-2.8,3.6-3.7c1.5-0.9,3.2-1.3,4.9-1.3c2.9,0,5.2,0.9,7,2.6
		c1.8,1.8,2.7,4.3,2.7,7.6v15.6h-5.4v-14c0-4.7-2-7.1-5.9-7.1c-1.9,0-3.5,0.6-4.8,1.8C1027.5,265.6,1026.8,267.4,1026.8,269.8z"/>
	<path d="M1063.7,284c-3.6,0-6.6-1.2-9.2-3.6c-2.6-2.4-3.8-5.6-3.8-9.5c0-3.9,1.3-7.1,4-9.5c2.7-2.4,5.9-3.7,9.8-3.7
		c3.8,0,7.1,1.3,9.7,4l-3.2,3.9c-2.2-1.9-4.4-2.9-6.7-2.9s-4.2,0.7-5.8,2.2c-1.6,1.5-2.5,3.4-2.5,5.8s0.8,4.3,2.4,6s3.6,2.4,6,2.4
		s4.6-1.1,6.7-3.3l3.2,3.5C1071.4,282.4,1067.8,284,1063.7,284z"/>
	<path d="M1080.4,253c-0.7-0.7-1-1.5-1-2.4c0-0.9,0.3-1.7,1-2.4c0.7-0.7,1.5-1,2.4-1c0.9,0,1.7,0.3,2.4,1c0.7,0.7,1,1.5,1,2.4
		c0,0.9-0.3,1.7-1,2.4c-0.7,0.7-1.5,1-2.4,1C1081.9,254,1081.1,253.7,1080.4,253z M1085.4,283.6h-5.4v-25.5h5.4V283.6z"/>
	<path d="M1114.6,280.2c-2.6,2.5-5.8,3.8-9.6,3.8c-3.8,0-7-1.3-9.6-3.8c-2.6-2.5-3.8-5.7-3.8-9.3c0-3.7,1.3-6.8,3.8-9.3
		c2.6-2.5,5.8-3.8,9.6-3.8c3.8,0,7,1.3,9.6,3.8c2.6,2.5,3.8,5.7,3.8,9.3C1118.4,274.5,1117.1,277.6,1114.6,280.2z M1099.2,276.9
		c1.5,1.6,3.4,2.3,5.8,2.3c2.3,0,4.3-0.8,5.8-2.3c1.5-1.6,2.3-3.6,2.3-6c0-2.5-0.8-4.5-2.3-6c-1.5-1.6-3.4-2.3-5.8-2.3
		c-2.3,0-4.3,0.8-5.8,2.3c-1.5,1.6-2.3,3.6-2.3,6C1096.9,273.3,1097.7,275.3,1099.2,276.9z"/>
	<path d="M1129.9,269.8v13.8h-5.4v-25.5h5.4v4.7c0.9-1.6,2.1-2.8,3.6-3.7c1.5-0.9,3.2-1.3,4.9-1.3c2.9,0,5.2,0.9,7,2.6
		c1.8,1.8,2.7,4.3,2.7,7.6v15.6h-5.4v-14c0-4.7-2-7.1-5.9-7.1c-1.9,0-3.5,0.6-4.8,1.8C1130.6,265.6,1129.9,267.4,1129.9,269.8z"/>
	<path d="M1176.2,283.6h-4.9v-3.4c-2.1,2.5-4.9,3.8-8.5,3.8c-2.7,0-4.9-0.8-6.6-2.3c-1.7-1.5-2.6-3.5-2.6-6c0-2.5,0.9-4.4,2.8-5.6
		c1.9-1.2,4.4-1.9,7.5-1.9h7v-1c0-3.4-1.9-5.1-5.7-5.1c-2.4,0-4.8,0.9-7.4,2.6l-2.4-3.4c3.1-2.5,6.6-3.7,10.6-3.7
		c3,0,5.5,0.8,7.4,2.3c1.9,1.5,2.9,3.9,2.9,7.2V283.6z M1170.8,274.1v-2.2h-6c-3.9,0-5.8,1.2-5.8,3.6c0,1.2,0.5,2.2,1.4,2.9
		c1,0.7,2.3,1,4,1s3.2-0.5,4.5-1.4C1170.2,277,1170.8,275.7,1170.8,274.1z"/>
	<path d="M1189.1,269.8v13.8h-5.4v-25.5h5.4v4.7c0.8-1.6,1.9-2.8,3.5-3.7c1.6-0.9,3.2-1.3,5-1.3c4,0,6.8,1.7,8.2,5
		c2.5-3.3,5.7-5,9.5-5c2.9,0,5.2,0.9,7,2.6c1.8,1.8,2.7,4.3,2.7,7.6v15.6h-5.4v-14c0-4.7-2-7.1-5.9-7.1c-1.8,0-3.4,0.6-4.8,1.8
		c-1.4,1.2-2.1,2.9-2.1,5.1v14.2h-5.4v-14c0-2.4-0.4-4.2-1.3-5.4c-0.9-1.1-2.2-1.7-4.1-1.7c-1.9,0-3.5,0.6-4.8,1.8
		C1189.7,265.6,1189.1,267.4,1189.1,269.8z"/>
	<path d="M1256.1,273.2h-20c0.1,1.9,1,3.4,2.5,4.5c1.6,1.1,3.4,1.7,5.4,1.7c3.2,0,5.6-1,7.3-3l3.1,3.4c-2.8,2.8-6.3,4.3-10.8,4.3
		c-3.6,0-6.6-1.2-9.1-3.6c-2.5-2.4-3.8-5.6-3.8-9.6c0-4,1.3-7.2,3.8-9.6c2.6-2.4,5.6-3.6,9-3.6c3.5,0,6.4,1,8.9,3.1
		c2.4,2.1,3.6,5,3.6,8.7V273.2z M1236.1,269h14.6c0-2.1-0.7-3.8-2-4.9s-3-1.7-5-1.7s-3.7,0.6-5.3,1.8
		C1236.9,265.3,1236.1,266.9,1236.1,269z"/>
	<path d="M1267.4,269.8v13.8h-5.4v-25.5h5.4v4.7c0.9-1.6,2.1-2.8,3.6-3.7c1.5-0.9,3.2-1.3,4.9-1.3c2.9,0,5.2,0.9,7,2.6
		c1.8,1.8,2.7,4.3,2.7,7.6v15.6h-5.4v-14c0-4.7-2-7.1-5.9-7.1c-1.9,0-3.5,0.6-4.8,1.8C1268.1,265.6,1267.4,267.4,1267.4,269.8z"/>
	<path d="M1299.3,262.4v13c0,1.2,0.3,2.2,1,2.9c0.6,0.7,1.5,1.1,2.7,1.1c1.2,0,2.3-0.6,3.3-1.7l2.2,3.8c-1.9,1.7-4,2.5-6.3,2.5
		c-2.3,0-4.2-0.8-5.9-2.4s-2.4-3.7-2.4-6.4v-12.8h-3.2v-4.3h3.2v-8h5.4v8h6.7v4.3H1299.3z"/>
	<path d="M1333.9,280.2c-2.6,2.5-5.8,3.8-9.6,3.8c-3.8,0-7-1.3-9.6-3.8c-2.6-2.5-3.8-5.7-3.8-9.3c0-3.7,1.3-6.8,3.8-9.3
		c2.6-2.5,5.8-3.8,9.6-3.8c3.8,0,7,1.3,9.6,3.8c2.6,2.5,3.8,5.7,3.8,9.3C1337.8,274.5,1336.5,277.6,1333.9,280.2z M1318.5,276.9
		c1.5,1.6,3.4,2.3,5.8,2.3c2.3,0,4.3-0.8,5.8-2.3c1.5-1.6,2.3-3.6,2.3-6c0-2.5-0.8-4.5-2.3-6c-1.5-1.6-3.4-2.3-5.8-2.3
		c-2.3,0-4.3,0.8-5.8,2.3c-1.5,1.6-2.3,3.6-2.3,6C1316.3,273.3,1317,275.3,1318.5,276.9z"/>
</g>
<g>
	<rect x="37.6" y="393.1" fill="#EF3F2F" width="262.5" height="70.5"/>
</g>
<g>
	<path d="M96.9,426.3v13.8h-5.4v-25.5h5.4v4.7c0.8-1.6,1.9-2.8,3.5-3.7c1.6-0.9,3.2-1.3,5-1.3c4,0,6.8,1.7,8.2,5
		c2.5-3.3,5.7-5,9.5-5c2.9,0,5.2,0.9,7,2.6c1.8,1.8,2.7,4.3,2.7,7.6v15.6h-5.4v-14c0-4.7-2-7.1-5.9-7.1c-1.8,0-3.4,0.6-4.8,1.8
		c-1.4,1.2-2.1,2.9-2.1,5.1v14.2h-5.4v-14c0-2.4-0.4-4.2-1.3-5.4c-0.9-1.1-2.2-1.7-4.1-1.7s-3.5,0.6-4.8,1.8
		C97.6,422.1,96.9,423.9,96.9,426.3z"/>
	<path d="M160.9,440.1H156v-3.4c-2.1,2.5-4.9,3.8-8.5,3.8c-2.7,0-4.9-0.8-6.6-2.3c-1.7-1.5-2.6-3.5-2.6-6c0-2.5,0.9-4.4,2.8-5.6
		c1.9-1.2,4.4-1.9,7.5-1.9h7v-1c0-3.4-1.9-5.1-5.7-5.1c-2.4,0-4.8,0.9-7.4,2.6l-2.4-3.4c3.1-2.5,6.6-3.7,10.6-3.7
		c3,0,5.5,0.8,7.4,2.3c1.9,1.5,2.9,3.9,2.9,7.2V440.1z M155.5,430.6v-2.2h-6c-3.9,0-5.8,1.2-5.8,3.6c0,1.2,0.5,2.2,1.4,2.9
		c1,0.7,2.3,1,4,1c1.7,0,3.2-0.5,4.5-1.4C154.9,433.5,155.5,432.2,155.5,430.6z"/>
	<path d="M186.6,432.5c0,2.4-0.9,4.4-2.6,5.8c-1.8,1.5-4,2.2-6.8,2.2c-1.9,0-3.8-0.3-5.8-1c-2-0.7-3.8-1.6-5.3-2.8l2.6-4.2
		c3,2.2,5.9,3.4,8.6,3.4c1.2,0,2.2-0.3,2.9-0.8c0.7-0.6,1.1-1.3,1.1-2.1c0-1.3-1.7-2.4-5.1-3.5c-0.3-0.1-0.4-0.2-0.6-0.2
		c-5.3-1.4-8-3.8-8-7.2c0-2.4,0.9-4.3,2.8-5.7c1.8-1.4,4.2-2.1,7.2-2.1c2.9,0,5.7,0.9,8.4,2.6l-2,4c-2.1-1.4-4.3-2.1-6.8-2.1
		c-1.3,0-2.3,0.2-3.1,0.7c-0.8,0.5-1.2,1.2-1.2,2.1c0,0.8,0.4,1.4,1.2,1.8c0.6,0.3,1.4,0.6,2.4,0.8c1,0.3,2,0.5,2.8,0.8
		c0.8,0.3,1.6,0.5,2.3,0.9c0.8,0.3,1.6,0.8,2.4,1.3C185.7,428.2,186.6,430,186.6,432.5z"/>
	<path d="M199.3,418.9v13c0,1.2,0.3,2.2,1,2.9c0.6,0.7,1.5,1.1,2.7,1.1c1.2,0,2.3-0.6,3.3-1.7l2.2,3.8c-1.9,1.7-4,2.5-6.3,2.5
		c-2.3,0-4.2-0.8-5.9-2.4c-1.6-1.6-2.4-3.7-2.4-6.4v-12.8h-3.2v-4.3h3.2v-8h5.4v8h6.7v4.3H199.3z"/>
	<path d="M236.5,429.7h-20c0.1,1.9,1,3.4,2.5,4.5c1.6,1.1,3.4,1.7,5.4,1.7c3.2,0,5.6-1,7.3-3l3.1,3.4c-2.8,2.8-6.3,4.3-10.8,4.3
		c-3.6,0-6.6-1.2-9.1-3.6c-2.5-2.4-3.8-5.6-3.8-9.6c0-4,1.3-7.2,3.8-9.6c2.6-2.4,5.6-3.6,9-3.6c3.5,0,6.4,1,8.9,3.1
		c2.4,2.1,3.6,5,3.6,8.7V429.7z M216.5,425.5h14.6c0-2.1-0.7-3.8-2-4.9c-1.3-1.2-3-1.7-5-1.7c-2,0-3.7,0.6-5.3,1.8
		C217.2,421.8,216.5,423.4,216.5,425.5z"/>
	<path d="M255.8,419.6c-2.7,0-4.7,0.9-6,2.6c-1.3,1.7-2,4-2,7v10.9h-5.4v-25.5h5.4v5.1c0.9-1.6,2-2.9,3.5-3.9c1.5-1,3.1-1.6,4.7-1.6
		l0,5.4C256,419.6,255.9,419.6,255.8,419.6z"/>
</g>
<line stroke="#000000" stroke-width="5" stroke-miterlimit="10" x1="300.1" y1="428.3" x2="1920" y2="428.3"/>
<line stroke="#000000" stroke-width="5" stroke-miterlimit="10" x1="300.1" y1="654.6" x2="1920" y2="654.6"/>
<path fill="none" d="M425.4,366.1"/>
<path fill="none" d="M425.4,402.1"/>
<circle fill="#EF3F2F" cx="425.4" cy="428.3" r="26.2"/>
<circle fill="#EF3F2F" cx="1194.9" cy="428.2" r="26.2"/>
<circle fill="#EF3F2F" cx="580" cy="654.7" r="26.2"/>
<g>
	<path d="M338.8,383.2h-4.2l-9-22.4h4.2l6.9,16.7l6.9-16.7h4.2L338.8,383.2z"/>
	<path d="M366.4,376.3H353c0.1,1.2,0.7,2.2,1.7,3c1,0.8,2.2,1.1,3.6,1.1c2.1,0,3.8-0.7,4.9-2l2,2.2c-1.8,1.9-4.2,2.8-7.2,2.8
		c-2.4,0-4.4-0.8-6.1-2.4c-1.7-1.6-2.5-3.7-2.5-6.4s0.9-4.8,2.6-6.4c1.7-1.6,3.7-2.4,6-2.4c2.3,0,4.3,0.7,5.9,2.1
		c1.6,1.4,2.4,3.3,2.4,5.8V376.3z M353,373.4h9.8c0-1.4-0.4-2.5-1.3-3.3s-2-1.2-3.3-1.2s-2.5,0.4-3.5,1.2
		C353.5,371,353,372.1,353,373.4z"/>
	<path d="M379.2,369.5c-1.8,0-3.1,0.6-4,1.7s-1.3,2.7-1.3,4.6v7.3h-3.6v-17h3.6v3.4c0.6-1.1,1.4-1.9,2.4-2.6c1-0.7,2-1,3.2-1.1
		l0,3.6C379.4,369.5,379.3,369.5,379.2,369.5z"/>
	<path d="M395.1,378.1c0,1.6-0.6,2.9-1.8,3.9c-1.2,1-2.7,1.5-4.5,1.5c-1.2,0-2.5-0.2-3.9-0.7c-1.3-0.4-2.5-1.1-3.5-1.9l1.7-2.8
		c2,1.5,3.9,2.2,5.8,2.2c0.8,0,1.5-0.2,1.9-0.6c0.5-0.4,0.7-0.8,0.7-1.4c0-0.9-1.1-1.6-3.4-2.3c-0.2-0.1-0.3-0.1-0.4-0.1
		c-3.5-1-5.3-2.6-5.3-4.8c0-1.6,0.6-2.8,1.8-3.8c1.2-0.9,2.8-1.4,4.8-1.4c2,0,3.8,0.6,5.6,1.7l-1.3,2.7c-1.4-0.9-2.9-1.4-4.5-1.4
		c-0.9,0-1.5,0.2-2.1,0.5c-0.5,0.3-0.8,0.8-0.8,1.4c0,0.6,0.3,1,0.8,1.2c0.4,0.2,0.9,0.4,1.6,0.5c0.7,0.2,1.3,0.3,1.8,0.5
		c0.5,0.2,1.1,0.4,1.6,0.6c0.5,0.2,1,0.5,1.6,0.9C394.6,375.3,395.1,376.5,395.1,378.1z"/>
	<path d="M413,383.2h-3.3v-2.3c-1.4,1.7-3.3,2.5-5.7,2.5c-1.8,0-3.2-0.5-4.4-1.5c-1.2-1-1.7-2.3-1.7-4c0-1.7,0.6-2.9,1.9-3.8
		c1.2-0.8,2.9-1.2,5-1.2h4.6v-0.6c0-2.3-1.3-3.4-3.8-3.4c-1.6,0-3.2,0.6-4.9,1.7l-1.6-2.2c2.1-1.6,4.4-2.5,7-2.5
		c2,0,3.6,0.5,4.9,1.5c1.3,1,1.9,2.6,1.9,4.8V383.2z M408.3,364.1c-0.6,0-1.3-0.3-2.3-0.8c-1-0.5-1.6-0.8-1.9-0.8
		c-0.7,0-1.1,0.5-1.1,1.4h-2.4c0-1.2,0.3-2.2,0.8-3c0.5-0.8,1.2-1.2,2.1-1.2c0.6,0,1.4,0.3,2.4,0.8c1,0.5,1.7,0.8,2,0.8
		c0.6,0,1-0.5,1-1.4h2.4C411.2,362.7,410.2,364.1,408.3,364.1z M409.4,376.9v-1.4h-4c-2.6,0-3.9,0.8-3.9,2.4c0,0.8,0.3,1.5,1,1.9
		c0.6,0.4,1.5,0.7,2.7,0.7s2.1-0.3,3-1C409,378.8,409.4,378,409.4,376.9z"/>
	<path d="M432.2,380.9c-1.7,1.7-3.8,2.5-6.4,2.5s-4.7-0.8-6.4-2.5c-1.7-1.7-2.6-3.8-2.6-6.2c0-2.5,0.9-4.5,2.6-6.2
		c1.7-1.7,3.8-2.5,6.4-2.5s4.7,0.8,6.4,2.5c1.7,1.7,2.6,3.8,2.6,6.2C434.8,377.1,433.9,379.2,432.2,380.9z M422,378.7
		c1,1,2.3,1.6,3.9,1.6c1.6,0,2.8-0.5,3.9-1.6c1-1,1.5-2.4,1.5-4c0-1.6-0.5-3-1.5-4c-1-1-2.3-1.6-3.9-1.6c-1.6,0-2.8,0.5-3.9,1.6
		c-1,1-1.5,2.4-1.5,4C420.4,376.3,420.9,377.7,422,378.7z"/>
	<path d="M461.4,383.2h-3.3v-2.3c-1.4,1.7-3.3,2.5-5.7,2.5c-1.8,0-3.2-0.5-4.4-1.5c-1.2-1-1.7-2.3-1.7-4c0-1.7,0.6-2.9,1.9-3.8
		c1.2-0.8,2.9-1.2,5-1.2h4.6v-0.6c0-2.3-1.3-3.4-3.8-3.4c-1.6,0-3.2,0.6-4.9,1.7l-1.6-2.2c2.1-1.6,4.4-2.5,7-2.5
		c2,0,3.6,0.5,4.9,1.5c1.3,1,1.9,2.6,1.9,4.8V383.2z M457.8,376.9v-1.4h-4c-2.6,0-3.9,0.8-3.9,2.4c0,0.8,0.3,1.5,1,1.9
		c0.6,0.4,1.5,0.7,2.7,0.7s2.1-0.3,3-1C457.4,378.8,457.8,378,457.8,376.9z"/>
	<path d="M470.6,369.1v8.6c0,0.8,0.2,1.5,0.6,1.9s1,0.7,1.8,0.7s1.5-0.4,2.2-1.1l1.5,2.5c-1.3,1.1-2.7,1.7-4.2,1.7s-2.8-0.5-3.9-1.6
		c-1.1-1.1-1.6-2.5-1.6-4.3v-8.5h-2.1v-2.9h2.1v-5.3h3.6v5.3h4.5v2.9H470.6z"/>
	<path d="M491.5,375.4v-9.2h3.6v17h-3.6v-3.1c-0.6,1-1.4,1.9-2.4,2.5c-1,0.6-2.1,0.9-3.3,0.9c-1.9,0-3.5-0.6-4.7-1.8
		c-1.2-1.2-1.8-2.9-1.8-5.1v-10.4h3.6v9.3c0,3.1,1.3,4.7,3.9,4.7c1.2,0,2.3-0.4,3.2-1.2C491,378.2,491.5,377,491.5,375.4z"/>
	<path d="M514,383.2h-3.3v-2.3c-1.4,1.7-3.3,2.5-5.7,2.5c-1.8,0-3.2-0.5-4.4-1.5c-1.2-1-1.7-2.3-1.7-4c0-1.7,0.6-2.9,1.9-3.8
		c1.2-0.8,2.9-1.2,5-1.2h4.6v-0.6c0-2.3-1.3-3.4-3.8-3.4c-1.6,0-3.2,0.6-4.9,1.7l-1.6-2.2c2.1-1.6,4.4-2.5,7-2.5
		c2,0,3.6,0.5,4.9,1.5c1.3,1,1.9,2.6,1.9,4.8V383.2z M510.5,376.9v-1.4h-4c-2.6,0-3.9,0.8-3.9,2.4c0,0.8,0.3,1.5,1,1.9
		c0.6,0.4,1.5,0.7,2.7,0.7s2.1-0.3,3-1C510,378.8,510.5,378,510.5,376.9z"/>
	<path d="M522.6,383.2H519v-23.7h3.6V383.2z"/>
</g>
<g>
	<rect x="37.6" y="619.3" fill="#EF3F2F" width="262.5" height="70.5"/>
</g>
<g>
	<path d="M131.5,663.1c-2.4-2.4-3.6-5.6-3.6-9.6c0-4,1.2-7.1,3.7-9.5c2.5-2.4,5.4-3.6,8.8-3.6c3.4,0,6.2,1.4,8.2,4.3v-14h5.4v35.6
		h-5.4v-3.8c-2,2.8-4.9,4.2-8.7,4.2C136.7,666.7,133.9,665.5,131.5,663.1z M133.3,653.7c0,2.4,0.8,4.4,2.4,6
		c1.6,1.5,3.4,2.3,5.5,2.3c2.1,0,3.9-0.8,5.4-2.3c1.5-1.6,2.2-3.5,2.2-6c0-2.4-0.7-4.5-2.2-6.1c-1.5-1.6-3.3-2.4-5.4-2.4
		c-2.1,0-4,0.8-5.5,2.4C134,649.2,133.3,651.2,133.3,653.7z"/>
	<path d="M185.5,655.9h-20c0.1,1.9,1,3.4,2.5,4.5c1.6,1.1,3.4,1.7,5.4,1.7c3.2,0,5.6-1,7.3-3l3.1,3.4c-2.8,2.8-6.3,4.3-10.8,4.3
		c-3.6,0-6.6-1.2-9.1-3.6c-2.5-2.4-3.8-5.6-3.8-9.6s1.3-7.2,3.8-9.6c2.6-2.4,5.6-3.6,9-3.6c3.5,0,6.4,1,8.9,3.1
		c2.4,2.1,3.6,5,3.6,8.7V655.9z M165.5,651.7h14.6c0-2.1-0.7-3.8-2-4.9c-1.3-1.2-3-1.7-5-1.7c-2,0-3.7,0.6-5.3,1.8
		C166.3,648,165.5,649.7,165.5,651.7z"/>
	<path d="M197.9,666.3l-10.3-25.5h5.6l7.8,19.3l7.8-19.3h5.6l-10.3,25.5H197.9z"/>
</g>
<path fill="none" stroke="#000000" stroke-width="3" stroke-miterlimit="10" d="M425.4,454.6c0,0-1.1,109.6,3.6,160.7
	c4.7,51.1,124.8,39.4,124.8,39.4"/>
<path fill="none" stroke="#000000" stroke-width="3" stroke-miterlimit="10" d="M1040.2,629.6c0,0-1.1-109.6,3.6-160.7
	s124.8-39.4,124.8-39.4"/>
<g>
	<line stroke="#000000" stroke-width="3" stroke-miterlimit="10" x1="464" y1="502.6" x2="464" y2="577.6"/>
	<line fill="none" stroke="#000000" stroke-width="3" stroke-miterlimit="10" x1="464" y1="577.6" x2="489.5" y2="555.2"/>
	<line fill="none" stroke="#000000" stroke-width="3" stroke-miterlimit="10" x1="464" y1="577.6" x2="438.5" y2="555.2"/>
</g>
<g>
	<line stroke="#000000" stroke-width="3" stroke-miterlimit="10" x1="1075.5" y1="577.5" x2="1075.5" y2="502.5"/>
	<line fill="none" stroke="#000000" stroke-width="3" stroke-miterlimit="10" x1="1075.5" y1="502.5" x2="1049.9" y2="524.9"/>
	<line fill="none" stroke="#000000" stroke-width="3" stroke-miterlimit="10" x1="1075.5" y1="502.5" x2="1101" y2="524.9"/>
</g>
<g>
	<path d="M453,698.2v6.1h9.9v3.5H453v9.2h-3.8v-22.4h14.9l0,3.5H453z"/>
	<path d="M479.5,709.2V700h3.6v17h-3.6v-3.1c-0.6,1-1.4,1.9-2.4,2.5c-1,0.6-2.1,0.9-3.3,0.9c-1.9,0-3.5-0.6-4.7-1.8
		c-1.2-1.2-1.8-2.9-1.8-5.1V700h3.6v9.3c0,3.1,1.3,4.7,3.9,4.7c1.2,0,2.3-0.4,3.2-1.2C479.1,712,479.5,710.8,479.5,709.2z"/>
	<path d="M491.9,707.8v9.2h-3.6v-17h3.6v3.1c0.6-1,1.4-1.9,2.4-2.5c1-0.6,2.1-0.9,3.3-0.9c1.9,0,3.5,0.6,4.7,1.8
		c1.2,1.2,1.8,2.9,1.8,5.1V717h-3.6v-9.3c0-3.1-1.3-4.7-3.9-4.7c-1.2,0-2.3,0.4-3.2,1.2C492.4,705,491.9,706.2,491.9,707.8z"/>
	<path d="M516.5,717.3c-2.4,0-4.4-0.8-6.1-2.4c-1.7-1.6-2.6-3.7-2.6-6.3c0-2.6,0.9-4.7,2.7-6.4c1.8-1.6,4-2.4,6.5-2.4
		c2.6,0,4.7,0.9,6.5,2.7l-2.1,2.6c-1.5-1.3-3-1.9-4.4-1.9s-2.8,0.5-3.9,1.5c-1.1,1-1.6,2.3-1.6,3.8s0.5,2.9,1.6,4s2.4,1.6,4,1.6
		c1.6,0,3.1-0.7,4.5-2.2l2.1,2.3C521.6,716.2,519.2,717.3,516.5,717.3z"/>
	<path d="M527.6,696.6c-0.4-0.4-0.7-1-0.7-1.6c0-0.6,0.2-1.2,0.7-1.6c0.4-0.4,1-0.7,1.6-0.7c0.6,0,1.2,0.2,1.6,0.7
		c0.4,0.4,0.7,1,0.7,1.6c0,0.6-0.2,1.2-0.7,1.6c-0.4,0.4-1,0.7-1.6,0.7C528.6,697.3,528.1,697,527.6,696.6z M531,717h-3.6v-17h3.6
		V717z"/>
	<path d="M550.4,714.7c-1.7,1.7-3.8,2.5-6.4,2.5s-4.7-0.8-6.4-2.5c-1.7-1.7-2.6-3.8-2.6-6.2s0.9-4.5,2.6-6.2
		c1.7-1.7,3.8-2.5,6.4-2.5s4.7,0.8,6.4,2.5c1.7,1.7,2.6,3.8,2.6,6.2S552.1,713,550.4,714.7z M540.2,712.5c1,1,2.3,1.6,3.9,1.6
		c1.6,0,2.8-0.5,3.9-1.6c1-1,1.5-2.4,1.5-4s-0.5-3-1.5-4c-1-1-2.3-1.6-3.9-1.6c-1.6,0-2.8,0.5-3.9,1.6c-1,1-1.5,2.4-1.5,4
		S539.2,711.5,540.2,712.5z"/>
	<path d="M560.6,707.8v9.2H557v-17h3.6v3.1c0.6-1,1.4-1.9,2.4-2.5c1-0.6,2.1-0.9,3.3-0.9c1.9,0,3.5,0.6,4.7,1.8
		c1.2,1.2,1.8,2.9,1.8,5.1V717h-3.6v-9.3c0-3.1-1.3-4.7-3.9-4.7c-1.2,0-2.3,0.4-3.2,1.2C561.1,705,560.6,706.2,560.6,707.8z"/>
	<path d="M591.5,717h-3.3v-2.3c-1.4,1.7-3.3,2.5-5.7,2.5c-1.8,0-3.2-0.5-4.4-1.5c-1.2-1-1.7-2.3-1.7-4s0.6-2.9,1.9-3.8
		c1.2-0.8,2.9-1.2,5-1.2h4.6v-0.6c0-2.3-1.3-3.4-3.8-3.4c-1.6,0-3.2,0.6-4.9,1.7l-1.6-2.2c2.1-1.6,4.4-2.5,7-2.5
		c2,0,3.6,0.5,4.9,1.5c1.3,1,1.9,2.6,1.9,4.8V717z M587.9,710.7v-1.4h-4c-2.6,0-3.9,0.8-3.9,2.4c0,0.8,0.3,1.5,1,1.9
		c0.6,0.4,1.5,0.7,2.7,0.7s2.1-0.3,3-1C587.5,712.6,587.9,711.8,587.9,710.7z"/>
	<path d="M600.1,717h-3.6v-23.7h3.6V717z"/>
	<path d="M605.5,696.6c-0.4-0.4-0.7-1-0.7-1.6c0-0.6,0.2-1.2,0.7-1.6c0.4-0.4,1-0.7,1.6-0.7c0.6,0,1.2,0.2,1.6,0.7
		c0.4,0.4,0.7,1,0.7,1.6c0,0.6-0.2,1.2-0.7,1.6c-0.4,0.4-1,0.7-1.6,0.7C606.5,697.3,605.9,697,605.5,696.6z M608.9,717h-3.6v-17h3.6
		V717z"/>
	<path d="M615.3,714.8c-1.6-1.6-2.4-3.8-2.4-6.4c0-2.6,0.8-4.8,2.5-6.3c1.6-1.6,3.6-2.4,5.9-2.4s4.1,1,5.5,2.9v-9.3h3.6V717h-3.6
		v-2.6c-1.3,1.9-3.3,2.8-5.8,2.8C618.8,717.3,616.9,716.4,615.3,714.8z M616.5,708.6c0,1.6,0.5,3,1.6,4c1,1,2.3,1.5,3.7,1.5
		c1.4,0,2.6-0.5,3.6-1.6c1-1,1.5-2.4,1.5-4c0-1.6-0.5-3-1.5-4.1c-1-1.1-2.2-1.6-3.6-1.6c-1.4,0-2.7,0.5-3.7,1.6
		S616.5,706.9,616.5,708.6z"/>
	<path d="M649.3,717h-3.3v-2.3c-1.4,1.7-3.3,2.5-5.7,2.5c-1.8,0-3.2-0.5-4.4-1.5c-1.2-1-1.7-2.3-1.7-4s0.6-2.9,1.9-3.8
		c1.2-0.8,2.9-1.2,5-1.2h4.6v-0.6c0-2.3-1.3-3.4-3.8-3.4c-1.6,0-3.2,0.6-4.9,1.7l-1.6-2.2c2.1-1.6,4.4-2.5,7-2.5
		c2,0,3.6,0.5,4.9,1.5c1.3,1,1.9,2.6,1.9,4.8V717z M645.7,710.7v-1.4h-4c-2.6,0-3.9,0.8-3.9,2.4c0,0.8,0.3,1.5,1,1.9
		c0.6,0.4,1.5,0.7,2.7,0.7s2.1-0.3,3-1C645.3,712.6,645.7,711.8,645.7,710.7z"/>
	<path d="M655.6,714.8c-1.6-1.6-2.4-3.8-2.4-6.4c0-2.6,0.8-4.8,2.5-6.3c1.6-1.6,3.6-2.4,5.9-2.4s4.1,1,5.5,2.9v-9.3h3.6V717h-3.6
		v-2.6c-1.3,1.9-3.3,2.8-5.8,2.8C659.1,717.3,657.2,716.4,655.6,714.8z M656.8,708.6c0,1.6,0.5,3,1.6,4c1,1,2.3,1.5,3.7,1.5
		c1.4,0,2.6-0.5,3.6-1.6c1-1,1.5-2.4,1.5-4c0-1.6-0.5-3-1.5-4.1c-1-1.1-2.2-1.6-3.6-1.6c-1.4,0-2.7,0.5-3.7,1.6
		S656.8,706.9,656.8,708.6z"/>
	<path d="M691.7,710.1h-13.3c0.1,1.2,0.7,2.2,1.7,3c1,0.8,2.2,1.1,3.6,1.1c2.1,0,3.8-0.7,4.9-2l2,2.2c-1.8,1.9-4.2,2.8-7.2,2.8
		c-2.4,0-4.4-0.8-6.1-2.4c-1.7-1.6-2.5-3.7-2.5-6.4c0-2.7,0.9-4.8,2.6-6.4c1.7-1.6,3.7-2.4,6-2.4c2.3,0,4.3,0.7,5.9,2.1
		c1.6,1.4,2.4,3.3,2.4,5.8V710.1z M678.3,707.2h9.8c0-1.4-0.4-2.5-1.3-3.3c-0.9-0.8-2-1.2-3.3-1.2s-2.5,0.4-3.5,1.2
		S678.3,705.9,678.3,707.2z"/>
	<path d="M702.7,694.6h8.1V717h-3.6v-19h-4.5V694.6z"/>
</g>
<circle fill="#EF3F2F" cx="1043.4" cy="654.7" r="26.2"/>
<g>
	<path d="M913.1,698.2v6.1h9.9v3.5h-9.9v9.2h-3.8v-22.4h14.9l0,3.5H913.1z"/>
	<path d="M939.6,709.2V700h3.6v17h-3.6v-3.1c-0.6,1-1.4,1.9-2.4,2.5c-1,0.6-2.1,0.9-3.3,0.9c-1.9,0-3.5-0.6-4.7-1.8
		c-1.2-1.2-1.8-2.9-1.8-5.1V700h3.6v9.3c0,3.1,1.3,4.7,3.9,4.7c1.2,0,2.3-0.4,3.2-1.2C939.2,712,939.6,710.8,939.6,709.2z"/>
	<path d="M952,707.8v9.2h-3.6v-17h3.6v3.1c0.6-1,1.4-1.9,2.4-2.5c1-0.6,2.1-0.9,3.3-0.9c1.9,0,3.5,0.6,4.7,1.8
		c1.2,1.2,1.8,2.9,1.8,5.1V717h-3.6v-9.3c0-3.1-1.3-4.7-3.9-4.7c-1.2,0-2.3,0.4-3.2,1.2C952.4,705,952,706.2,952,707.8z"/>
	<path d="M976.6,717.3c-2.4,0-4.4-0.8-6.1-2.4c-1.7-1.6-2.6-3.7-2.6-6.3c0-2.6,0.9-4.7,2.7-6.4c1.8-1.6,4-2.4,6.5-2.4
		s4.7,0.9,6.5,2.7l-2.1,2.6c-1.5-1.3-3-1.9-4.4-1.9s-2.8,0.5-3.9,1.5s-1.6,2.3-1.6,3.8s0.5,2.9,1.6,4s2.4,1.6,4,1.6
		c1.6,0,3.1-0.7,4.5-2.2l2.1,2.3C981.7,716.2,979.3,717.3,976.6,717.3z"/>
	<path d="M987.7,696.6c-0.4-0.4-0.7-1-0.7-1.6c0-0.6,0.2-1.2,0.7-1.6s1-0.7,1.6-0.7s1.2,0.2,1.6,0.7c0.4,0.4,0.7,1,0.7,1.6
		c0,0.6-0.2,1.2-0.7,1.6c-0.4,0.4-1,0.7-1.6,0.7S988.2,697,987.7,696.6z M991.1,717h-3.6v-17h3.6V717z"/>
	<path d="M1010.5,714.7c-1.7,1.7-3.8,2.5-6.4,2.5c-2.6,0-4.7-0.8-6.4-2.5c-1.7-1.7-2.6-3.8-2.6-6.2s0.9-4.5,2.6-6.2
		c1.7-1.7,3.8-2.5,6.4-2.5c2.6,0,4.7,0.8,6.4,2.5c1.7,1.7,2.6,3.8,2.6,6.2S1012.2,713,1010.5,714.7z M1000.2,712.5
		c1,1,2.3,1.6,3.9,1.6c1.6,0,2.8-0.5,3.9-1.6c1-1,1.5-2.4,1.5-4s-0.5-3-1.5-4c-1-1-2.3-1.6-3.9-1.6c-1.6,0-2.8,0.5-3.9,1.6
		c-1,1-1.5,2.4-1.5,4S999.2,711.5,1000.2,712.5z"/>
	<path d="M1020.7,707.8v9.2h-3.6v-17h3.6v3.1c0.6-1,1.4-1.9,2.4-2.5s2.1-0.9,3.3-0.9c1.9,0,3.5,0.6,4.7,1.8c1.2,1.2,1.8,2.9,1.8,5.1
		V717h-3.6v-9.3c0-3.1-1.3-4.7-3.9-4.7c-1.2,0-2.3,0.4-3.2,1.2C1021.2,705,1020.7,706.2,1020.7,707.8z"/>
	<path d="M1051.6,717h-3.3v-2.3c-1.4,1.7-3.3,2.5-5.7,2.5c-1.8,0-3.2-0.5-4.4-1.5c-1.2-1-1.7-2.3-1.7-4s0.6-2.9,1.9-3.8
		c1.2-0.8,2.9-1.2,5-1.2h4.6v-0.6c0-2.3-1.3-3.4-3.8-3.4c-1.6,0-3.2,0.6-4.9,1.7l-1.6-2.2c2.1-1.6,4.4-2.5,7-2.5
		c2,0,3.6,0.5,4.9,1.5s1.9,2.6,1.9,4.8V717z M1048,710.7v-1.4h-4c-2.6,0-3.9,0.8-3.9,2.4c0,0.8,0.3,1.5,1,1.9
		c0.6,0.4,1.5,0.7,2.7,0.7c1.1,0,2.1-0.3,3-1C1047.6,712.6,1048,711.8,1048,710.7z"/>
	<path d="M1060.2,717h-3.6v-23.7h3.6V717z"/>
	<path d="M1065.6,696.6c-0.4-0.4-0.7-1-0.7-1.6c0-0.6,0.2-1.2,0.7-1.6s1-0.7,1.6-0.7s1.2,0.2,1.6,0.7c0.4,0.4,0.7,1,0.7,1.6
		c0,0.6-0.2,1.2-0.7,1.6c-0.4,0.4-1,0.7-1.6,0.7S1066,697,1065.6,696.6z M1068.9,717h-3.6v-17h3.6V717z"/>
	<path d="M1075.4,714.8c-1.6-1.6-2.4-3.8-2.4-6.4c0-2.6,0.8-4.8,2.5-6.3c1.6-1.6,3.6-2.4,5.9-2.4c2.3,0,4.1,1,5.5,2.9v-9.3h3.6V717
		h-3.6v-2.6c-1.3,1.9-3.3,2.8-5.8,2.8C1078.9,717.3,1077,716.4,1075.4,714.8z M1076.6,708.6c0,1.6,0.5,3,1.6,4c1,1,2.3,1.5,3.7,1.5
		c1.4,0,2.6-0.5,3.6-1.6c1-1,1.5-2.4,1.5-4c0-1.6-0.5-3-1.5-4.1s-2.2-1.6-3.6-1.6c-1.4,0-2.7,0.5-3.7,1.6
		C1077.1,705.6,1076.6,706.9,1076.6,708.6z"/>
	<path d="M1109.4,717h-3.3v-2.3c-1.4,1.7-3.3,2.5-5.7,2.5c-1.8,0-3.2-0.5-4.4-1.5c-1.2-1-1.7-2.3-1.7-4s0.6-2.9,1.9-3.8
		s2.9-1.2,5-1.2h4.6v-0.6c0-2.3-1.3-3.4-3.8-3.4c-1.6,0-3.2,0.6-4.9,1.7l-1.6-2.2c2.1-1.6,4.4-2.5,7-2.5c2,0,3.6,0.5,4.9,1.5
		c1.3,1,1.9,2.6,1.9,4.8V717z M1105.8,710.7v-1.4h-4c-2.6,0-3.9,0.8-3.9,2.4c0,0.8,0.3,1.5,1,1.9c0.6,0.4,1.5,0.7,2.7,0.7
		c1.1,0,2.1-0.3,3-1C1105.4,712.6,1105.8,711.8,1105.8,710.7z"/>
	<path d="M1115.7,714.8c-1.6-1.6-2.4-3.8-2.4-6.4c0-2.6,0.8-4.8,2.5-6.3c1.6-1.6,3.6-2.4,5.9-2.4c2.3,0,4.1,1,5.5,2.9v-9.3h3.6V717
		h-3.6v-2.6c-1.3,1.9-3.3,2.8-5.8,2.8C1119.2,717.3,1117.3,716.4,1115.7,714.8z M1116.9,708.6c0,1.6,0.5,3,1.6,4
		c1,1,2.3,1.5,3.7,1.5s2.6-0.5,3.6-1.6c1-1,1.5-2.4,1.5-4c0-1.6-0.5-3-1.5-4.1c-1-1.1-2.2-1.6-3.6-1.6c-1.4,0-2.7,0.5-3.7,1.6
		C1117.4,705.6,1116.9,706.9,1116.9,708.6z"/>
	<path d="M1151.7,710.1h-13.3c0.1,1.2,0.7,2.2,1.7,3c1,0.8,2.2,1.1,3.6,1.1c2.1,0,3.8-0.7,4.9-2l2,2.2c-1.8,1.9-4.2,2.8-7.2,2.8
		c-2.4,0-4.4-0.8-6.1-2.4c-1.7-1.6-2.5-3.7-2.5-6.4c0-2.7,0.9-4.8,2.6-6.4c1.7-1.6,3.7-2.4,6-2.4c2.3,0,4.3,0.7,5.9,2.1
		c1.6,1.4,2.4,3.3,2.4,5.8V710.1z M1138.4,707.2h9.8c0-1.4-0.4-2.5-1.3-3.3c-0.9-0.8-2-1.2-3.3-1.2c-1.3,0-2.5,0.4-3.5,1.2
		C1138.9,704.8,1138.4,705.9,1138.4,707.2z"/>
	<path d="M1173.7,703.4c0.6-0.9,1-1.8,1-2.7c0-0.9-0.3-1.7-1-2.3c-0.7-0.6-1.5-0.9-2.6-0.9c-1.8,0-3.4,0.9-4.6,2.8l-3-1.8
		c1-1.5,2.1-2.6,3.2-3.3c1.2-0.7,2.7-1.1,4.6-1.1c1.9,0,3.5,0.6,4.9,1.8c1.4,1.2,2.1,2.8,2.1,4.8c0,1.2-0.3,2.3-0.9,3.3
		c-0.6,1-1.7,2.4-3.3,4l-5.2,5.3h10.1v3.6h-15.3v-3.2l6.8-6.8C1172,705.5,1173.1,704.2,1173.7,703.4z"/>
</g>
<g>
	<path d="M1115,360.8h3.8v22.4h-4.1l-12.7-16.3v16.3h-3.8v-22.4h3.8l13,16.7V360.8z"/>
	<path d="M1138.7,380.9c-1.7,1.7-3.8,2.5-6.4,2.5c-2.6,0-4.7-0.8-6.4-2.5c-1.7-1.7-2.6-3.8-2.6-6.2c0-2.5,0.9-4.5,2.6-6.2
		c1.7-1.7,3.8-2.5,6.4-2.5c2.6,0,4.7,0.8,6.4,2.5c1.7,1.7,2.6,3.8,2.6,6.2C1141.3,377.1,1140.4,379.2,1138.7,380.9z M1128.5,378.7
		c1,1,2.3,1.6,3.9,1.6s2.8-0.5,3.9-1.6c1-1,1.5-2.4,1.5-4c0-1.6-0.5-3-1.5-4c-1-1-2.3-1.6-3.9-1.6s-2.8,0.5-3.9,1.6
		c-1,1-1.5,2.4-1.5,4C1126.9,376.3,1127.4,377.7,1128.5,378.7z"/>
	<path d="M1149.6,383.2l-6.8-17h3.7l5.2,12.9l5.2-12.9h3.7l-6.8,17H1149.6z"/>
	<path d="M1176.9,383.2h-3.3v-2.3c-1.4,1.7-3.3,2.5-5.7,2.5c-1.8,0-3.2-0.5-4.4-1.5c-1.2-1-1.7-2.3-1.7-4c0-1.7,0.6-2.9,1.9-3.8
		s2.9-1.2,5-1.2h4.6v-0.6c0-2.3-1.3-3.4-3.8-3.4c-1.6,0-3.2,0.6-4.9,1.7l-1.6-2.2c2.1-1.6,4.4-2.5,7-2.5c2,0,3.6,0.5,4.9,1.5
		c1.3,1,1.9,2.6,1.9,4.8V383.2z M1173.3,376.9v-1.4h-4c-2.6,0-3.9,0.8-3.9,2.4c0,0.8,0.3,1.5,1,1.9c0.6,0.4,1.5,0.7,2.7,0.7
		c1.1,0,2.1-0.3,3-1C1172.9,378.8,1173.3,378,1173.3,376.9z"/>
	<path d="M1195.2,383.2l-6.8-17h3.7l5.2,12.9l5.2-12.9h3.7l-6.8,17H1195.2z"/>
	<path d="M1224.8,376.3h-13.3c0.1,1.2,0.7,2.2,1.7,3c1,0.8,2.2,1.1,3.6,1.1c2.1,0,3.8-0.7,4.9-2l2,2.2c-1.8,1.9-4.2,2.8-7.2,2.8
		c-2.4,0-4.4-0.8-6.1-2.4c-1.7-1.6-2.5-3.7-2.5-6.4s0.9-4.8,2.6-6.4c1.7-1.6,3.7-2.4,6-2.4s4.3,0.7,5.9,2.1c1.6,1.4,2.4,3.3,2.4,5.8
		V376.3z M1211.5,373.4h9.8c0-1.4-0.4-2.5-1.3-3.3c-0.9-0.8-2-1.2-3.3-1.2c-1.3,0-2.5,0.4-3.5,1.2
		C1212,371,1211.5,372.1,1211.5,373.4z"/>
	<path d="M1237.7,369.5c-1.8,0-3.1,0.6-4,1.7c-0.9,1.2-1.3,2.7-1.3,4.6v7.3h-3.6v-17h3.6v3.4c0.6-1.1,1.4-1.9,2.4-2.6
		c1-0.7,2-1,3.2-1.1l0,3.6C1237.8,369.5,1237.8,369.5,1237.7,369.5z"/>
	<path d="M1253.6,378.1c0,1.6-0.6,2.9-1.8,3.9c-1.2,1-2.7,1.5-4.5,1.5c-1.2,0-2.5-0.2-3.9-0.7c-1.3-0.4-2.5-1.1-3.5-1.9l1.7-2.8
		c2,1.5,3.9,2.2,5.8,2.2c0.8,0,1.5-0.2,1.9-0.6c0.5-0.4,0.7-0.8,0.7-1.4c0-0.9-1.1-1.6-3.4-2.3c-0.2-0.1-0.3-0.1-0.4-0.1
		c-3.5-1-5.3-2.6-5.3-4.8c0-1.6,0.6-2.8,1.8-3.8s2.8-1.4,4.8-1.4c2,0,3.8,0.6,5.6,1.7l-1.3,2.7c-1.4-0.9-2.9-1.4-4.5-1.4
		c-0.9,0-1.5,0.2-2.1,0.5c-0.5,0.3-0.8,0.8-0.8,1.4c0,0.6,0.3,1,0.8,1.2c0.4,0.2,0.9,0.4,1.6,0.5c0.7,0.2,1.3,0.3,1.8,0.5
		c0.5,0.2,1,0.4,1.6,0.6c0.5,0.2,1,0.5,1.6,0.9C1253,375.3,1253.6,376.5,1253.6,378.1z"/>
	<path d="M1271.4,383.2h-3.3v-2.3c-1.4,1.7-3.3,2.5-5.7,2.5c-1.8,0-3.2-0.5-4.4-1.5c-1.2-1-1.7-2.3-1.7-4c0-1.7,0.6-2.9,1.9-3.8
		s2.9-1.2,5-1.2h4.6v-0.6c0-2.3-1.3-3.4-3.8-3.4c-1.6,0-3.2,0.6-4.9,1.7l-1.6-2.2c2.1-1.6,4.4-2.5,7-2.5c2,0,3.6,0.5,4.9,1.5
		c1.3,1,1.9,2.6,1.9,4.8V383.2z M1266.7,364.1c-0.6,0-1.3-0.3-2.3-0.8c-1-0.5-1.6-0.8-1.9-0.8c-0.7,0-1.1,0.5-1.1,1.4h-2.4
		c0-1.2,0.3-2.2,0.8-3s1.2-1.2,2.1-1.2c0.6,0,1.4,0.3,2.4,0.8c1,0.5,1.7,0.8,2,0.8c0.6,0,1-0.5,1-1.4h2.4
		C1269.6,362.7,1268.6,364.1,1266.7,364.1z M1267.9,376.9v-1.4h-4c-2.6,0-3.9,0.8-3.9,2.4c0,0.8,0.3,1.5,1,1.9
		c0.6,0.4,1.5,0.7,2.7,0.7c1.1,0,2.1-0.3,3-1C1267.4,378.8,1267.9,378,1267.9,376.9z"/>
	<path d="M1290.7,380.9c-1.7,1.7-3.8,2.5-6.4,2.5c-2.6,0-4.7-0.8-6.4-2.5c-1.7-1.7-2.6-3.8-2.6-6.2c0-2.5,0.9-4.5,2.6-6.2
		c1.7-1.7,3.8-2.5,6.4-2.5c2.6,0,4.7,0.8,6.4,2.5c1.7,1.7,2.6,3.8,2.6,6.2C1293.2,377.1,1292.4,379.2,1290.7,380.9z M1280.4,378.7
		c1,1,2.3,1.6,3.9,1.6s2.8-0.5,3.9-1.6c1-1,1.5-2.4,1.5-4c0-1.6-0.5-3-1.5-4c-1-1-2.3-1.6-3.9-1.6s-2.8,0.5-3.9,1.6
		c-1,1-1.5,2.4-1.5,4C1278.9,376.3,1279.4,377.7,1280.4,378.7z"/>
</g>
</svg>
