<?xml version="1.0" encoding="utf-8"?>
<!-- Generator: Adobe Illustrator 19.1.0, SVG Export Plug-In . SVG Version: 6.00 Build 0)  -->
<svg version="1.1" id="bitbucket" xmlns="http://www.w3.org/2000/svg" xmlns:xlink="http://www.w3.org/1999/xlink" x="0px" y="0px"
	 viewBox="254 -48.7 855 267.7" style="enable-background:new 254 -48.7 855 267.7;" xml:space="preserve">
<style type="text/css">
	.st0{fill:#205081;}
</style>
<g>
	<g>
		<g>
			<g>
				<g>
					<path class="st0" d="M673.8,87.8c-9.2,0-18.5,2.3-24.9,4.6V57.9c0-1.7-1.4-3.1-3.2-3.1h-18.6c-1.7,0-3.1,1.4-3.1,3.1v119
						c0,1.5,1.1,2.8,2.6,3.1c11.5,2.1,25,2.8,33.2,2.8c35,0,42.1-14.9,42.1-37.2v-26C701.9,98.4,692.5,87.8,673.8,87.8z
						 M660.9,161.2c-4.7,0-8.6-0.2-11.9-0.6V114c5.1-2.3,12.3-4.6,18.1-4.6c7.1,0,9.9,2.8,9.9,9.6v27.3
						C677,156.1,674.5,161.2,660.9,161.2z"/>
					<path class="st0" d="M787.6,89.6H769c-1.7,0-3.1,1.4-3.1,3.1v58.9c-6.7,3.4-16.2,6.9-21.8,6.9c-4.2,0-5.7-1.5-5.7-5.7V92.7
						c0-1.7-1.4-3.1-3.2-3.1h-18.6c-1.8,0-3.2,1.4-3.2,3.1v62.5c0,18.3,7.2,27.6,21.4,27.6c9.9,0,23.3-3.4,34.7-8.7l1.4,4.6
						c0.4,1.3,1.6,2.3,3,2.3l13.8,0c1.7,0,3.2-1.4,3.2-3.1V92.7C790.8,91,789.4,89.6,787.6,89.6z"/>
					<path class="st0" d="M862.6,161.7c-0.1-0.9-0.6-1.6-1.3-2.1c-0.7-0.5-1.6-0.7-2.5-0.5c-5.3,1.2-10.9,1.9-16.2,1.9
						c-11.8,0-15.2-3-15.2-13.4V123c0-10.4,3.4-13.4,15.2-13.4c2.8,0,9.8,0.4,16.2,1.9c0.9,0.2,1.8,0,2.5-0.5
						c0.7-0.5,1.2-1.3,1.3-2.1l2.2-14.7c0.2-1.6-0.7-3-2.2-3.5c-7.2-2.1-15.6-2.9-20.5-2.9c-28.1,0-39.6,10.2-39.6,35.4v24.2
						c0,25.1,11.5,35.4,39.6,35.4c6.8,0,14.7-1.1,20.5-2.9c1.5-0.4,2.4-1.9,2.2-3.5L862.6,161.7z"/>
					<path class="st0" d="M990.8,87.8c-25,0-38.1,12.4-38.1,35.9v23.5c0,24.3,12.4,35.6,38.9,35.6c10.8,0,22.3-1.9,31.6-5.2
						c1.5-0.5,2.4-2.1,2-3.6l-2.8-13.3c-0.2-0.9-0.7-1.6-1.5-2.1c-0.8-0.5-1.7-0.6-2.5-0.3c-8.6,2.4-16.7,3.6-24.9,3.6
						c-13.6,0-16-4.4-16-13.6v-3.2h46.2c1.8,0,3.1-1.4,3.1-3.2v-17.1C1026.9,99.5,1015.5,87.8,990.8,87.8z M977.6,124.5v-3
						c0-8.8,4.3-12.9,13.4-12.9c10.1,0,12.1,4.9,12.1,12.9v3H977.6z"/>
					<path class="st0" d="M543.1,89.5h-18.6c-1.7,0-3.2,1.4-3.2,3.1v85.1c0,1.7,1.4,3.2,3.2,3.2h18.6c1.8,0,3.2-1.4,3.2-3.2V92.7
						C546.2,91,544.8,89.5,543.1,89.5z"/>
					<path class="st0" d="M543.1,54.7h-18.6c-1.7,0-3.2,1.4-3.2,3.2v16c0,1.8,1.4,3.2,3.2,3.2h18.6c1.8,0,3.2-1.4,3.2-3.2v-16
						C546.2,56.1,544.8,54.7,543.1,54.7z"/>
					<g>
						<path class="st0" d="M496.2,116.1c7.7-4.2,11.1-10.2,11.1-19.3V84.2c0-18.3-11-27.2-33.6-27.2h-45.9c-1.7,0-3.1,1.4-3.1,3.1
							v117.6c0,1.7,1.4,3.2,3.1,3.2H477c21.9,0,34.5-10.6,34.5-29.2v-12.9C511.5,127.7,505.8,119.5,496.2,116.1z M450.3,78.6H471
							c9.4,0,10.7,4.1,10.7,8.5v10.7c0,7-3.3,9.9-10.9,9.9h-4.5c-1.8,0-3.2,1.4-3.2,3.2v14.8c0,1.8,1.4,3.2,3.2,3.2h8.1
							c8.1,0,11.4,3.1,11.4,10.8v9.1c0,7.8-3.4,10.5-13.4,10.5h-22.1L450.3,78.6L450.3,78.6z"/>
					</g>
					<path class="st0" d="M613,162.8c-0.1-0.9-0.6-1.7-1.3-2.2c-0.7-0.5-1.7-0.7-2.5-0.4c-3.3,0.8-6.4,1.3-8.9,1.3
						c-4.6,0-6.6-2-6.6-6.5V110h18.1c1.7,0,3.1-1.4,3.1-3.2V92.7c0-1.7-1.4-3.1-3.1-3.1h-18.1V67.9c0-0.9-0.4-1.8-1.1-2.4
						c-0.7-0.6-1.6-0.9-2.5-0.7l-18.6,2.6c-1.6,0.2-2.7,1.6-2.7,3.1v19.1h-10.1c-1.7,0-3.2,1.4-3.2,3.1v14.1c0,1.7,1.4,3.2,3.2,3.2
						h10.1v48c0,16.5,8.6,24.8,25.7,24.8c4.9,0,13.1-1.1,18.5-3c1.5-0.5,2.3-1.9,2.1-3.5L613,162.8z"/>
					<path class="st0" d="M1088.3,162.8c-0.1-0.9-0.6-1.7-1.4-2.2c-0.7-0.5-1.7-0.7-2.5-0.4c-3.3,0.8-6.4,1.3-8.9,1.3
						c-4.6,0-6.7-2-6.7-6.5V110h18.1c1.8,0,3.1-1.4,3.1-3.1V92.7c0-1.7-1.4-3.1-3.1-3.1h-18.1V67.9c0-0.9-0.4-1.8-1.1-2.4
						c-0.7-0.6-1.6-0.9-2.5-0.7l-18.6,2.6c-1.6,0.2-2.7,1.6-2.7,3.1v19.1h-10.1c-1.7,0-3.1,1.4-3.1,3.1v14.1c0,1.7,1.4,3.1,3.1,3.1
						h10.1v48c0,16.5,8.7,24.8,25.7,24.8c4.9,0,13.1-1.1,18.5-3c1.4-0.5,2.3-1.9,2.1-3.5L1088.3,162.8z"/>
				</g>
			</g>
		</g>
	</g>
	<path class="st0" d="M949.8,175.7l-24.9-41.1l24-40.4c0.6-1,0.6-2.2,0-3.2c-0.6-1-1.6-1.6-2.7-1.6h-20.6c-1.1,0-2.2,0.6-2.7,1.6
		l-22.8,39.6V57.9c0-1.7-1.4-3.2-3.2-3.2h-18.6c-1.7,0-3.2,1.4-3.2,3.2v119.9c0,1.7,1.4,3.1,3.2,3.1h18.6c1.7,0,3.2-1.4,3.2-3.1
		v-39.2l24.3,40.7c0.6,1,1.6,1.5,2.7,1.5h20.2c0,0,0,0,0,0c1.7,0,3.2-1.4,3.2-3.1C950.4,176.9,950.2,176.2,949.8,175.7z"/>
	<path class="st0" d="M330.2,46.2L330.2,46.2L330.2,46.2c-33.7,0-61.2,9.1-61.2,20.3c0,3,7.3,45.4,10.3,62.3
		c1.3,7.6,20.8,18.6,50.9,18.6l0-0.1v0.1c30.1,0,49.6-11.1,50.9-18.6c2.9-16.8,10.3-59.3,10.3-62.3
		C391.3,55.3,363.8,46.2,330.2,46.2z M330.2,133.8c-10.7,0-19.4-8.7-19.4-19.4c0-10.7,8.7-19.4,19.4-19.4c10.7,0,19.4,8.7,19.4,19.4
		C349.6,125.1,340.9,133.8,330.2,133.8z M330.2,72.8c-21.6,0-39.2-3.8-39.2-8.4c0-4.6,17.6-8.3,39.2-8.3c21.6,0,39.2,3.8,39.2,8.4
		C369.3,69.1,351.8,72.8,330.2,72.8z"/>
	<path class="st0" d="M374.1,145.7c-0.9,0-1.7,0.7-1.7,0.7s-15.1,11.9-42.3,11.9c-27.2,0-42.3-11.9-42.3-11.9s-0.7-0.7-1.7-0.7
		c-1.1,0-2.2,0.7-2.2,2.4c0,0.2,0,0.3,0,0.5c2.3,12.5,4,21.4,4.3,22.7c2,9.2,20,16.2,41.7,16.2l0,0h0h0l0,0
		c21.7,0,39.7-6.9,41.7-16.2c0.3-1.4,2-10.2,4.3-22.7c0-0.2,0-0.3,0-0.5C376.3,146.4,375.2,145.7,374.1,145.7z"/>
	<circle class="st0" cx="330.2" cy="114.3" r="9.7"/>
</g>
</svg>
