<?xml version="1.0" encoding="utf-8"?>
<!-- Generator: Adobe Illustrator 18.0.0, SVG Export Plug-In . SVG Version: 6.00 Build 0)  -->
<!DOCTYPE svg PUBLIC "-//W3C//DTD SVG 1.1//EN" "http://www.w3.org/Graphics/SVG/1.1/DTD/svg11.dtd">
<svg version="1.1" id="Layer_1" xmlns="http://www.w3.org/2000/svg" xmlns:xlink="http://www.w3.org/1999/xlink" x="0px" y="0px"
	 viewBox="0 0 227.9 43.3" enable-background="new 0 0 227.9 43.3" xml:space="preserve">
<rect x="-0.1" y="0" fill="none" width="228.2" height="43.3"/>
<g>
	<g>
		<g>
			<path fill="#FFFFFF" d="M95.2,42.3c0.4-1.7,0.7-3.3,1-5c2.5-11.8,5-23.6,7.5-35.4c0.2-0.7,0.4-1,1.2-1c4.8,0,9.6,0,14.3,0
				c0.6,0,0.9,0.2,1.1,0.8c2.3,9.7,4.6,19.4,6.9,29.1c0.1,0.2,0.1,0.5,0.3,0.7c0.2-0.9,0.4-1.8,0.6-2.8c1.9-9,3.8-18,5.8-27.1
				c0.1-0.4,0.1-0.8,0.7-0.8c3.1,0,6.3,0,9.4,0c0.1,0,0.2,0.1,0.4,0.1c-0.5,2.5-1,4.9-1.6,7.4c-2.4,11.1-4.7,22.2-7.1,33.3
				c-0.1,0.6-0.3,0.7-0.9,0.7c-4.8,0-9.7,0-14.5,0c-0.6,0-0.8-0.2-0.9-0.8c-2.3-9.9-4.6-19.9-6.9-29.8c-0.1-0.3-0.1-0.5-0.4-0.8
				c-0.3,1.3-0.6,2.6-0.9,4c-1.9,8.9-3.8,17.9-5.7,26.8c-0.1,0.4-0.2,0.6-0.6,0.6c-3.2,0-6.3,0-9.5,0C95.4,42.4,95.3,42.3,95.2,42.3
				z"/>
			<path fill="#FFFFFF" d="M28.3,29.2c0,0.7,0,1.4,0,2c0.1,1.5,0.9,2.6,2.2,3.2c2.6,1.3,6.9,0.7,9.1-1.2c0.8-0.7,1.2-1.5,1.4-2.6
				c0.2-1.5-0.4-2.7-1.8-3.2c-1.7-0.7-3.5-1.3-5.2-1.7c-2.9-0.8-5.8-1.5-8.6-2.8c-3.2-1.5-4.9-4.3-4.7-7.8c0.6-6.5,4-10.8,9.8-13.1
				c6.1-2.4,12.4-2.7,18.8-0.9c2,0.5,3.7,1.5,5,3.1c1.8,2.1,2,4.6,1.5,7.2c-0.4,2.1,0,1.7-2.1,1.7c-2.9,0-5.9,0-8.8,0
				c-0.3,0-0.6,0-1,0c0-0.5,0.1-0.8,0.1-1.2c0.1-1.5-0.6-2.5-1.9-3.2c-2.3-1.1-5.7-0.6-7.6,1.2c-2,1.9-1.7,4.3,0.8,5.4
				c1.6,0.7,3.3,1.1,4.9,1.6c2.6,0.8,5.4,1.4,7.9,2.4c2.7,1,4.7,2.9,5.1,5.9c0.6,4.4-0.6,8.3-3.6,11.5c-2.8,3-6.4,4.6-10.3,5.5
				c-5.2,1.2-10.4,1.2-15.6-0.2c-3.2-0.9-5.7-2.6-6.8-5.9c-0.8-2.2-0.6-4.5-0.2-6.7c0-0.2,0.3-0.4,0.5-0.4c3.6,0,7.2,0,10.8,0
				C28.2,29.1,28.2,29.2,28.3,29.2z"/>
			<path fill="#FFFFFF" d="M186.6,42.3c-4.3,0-8.6,0-13,0c-0.2-1.2-0.3-2.4-0.5-3.7s-0.3-2.6-0.5-3.8c0-0.4-0.2-0.5-0.6-0.5
				c-5.3,0-10.6,0-15.8,0c-0.3,0-0.6,0.3-0.7,0.5c-1.3,2.3-2.5,4.6-3.8,6.9c-0.1,0.3-0.5,0.6-0.7,0.6c-3.6,0-7.3,0-11.1,0
				c0.2-0.3,0.3-0.6,0.4-0.8c8.1-13.3,16.2-26.6,24.3-39.9c0.3-0.5,0.6-0.7,1.2-0.7c4.1,0,8.2,0,12.4,0c0.7,0,1,0.2,1.1,0.9
				c1.2,6.4,2.3,12.9,3.5,19.3c1.2,6.8,2.5,13.6,3.7,20.5C186.6,41.8,186.6,42,186.6,42.3z M171.5,26.2c-0.5-5.7-1.1-11.3-1.6-16.9
				c-0.1,0-0.1,0-0.2,0c-3,5.6-6.1,11.3-9.2,17C164.2,26.2,167.8,26.2,171.5,26.2z"/>
			<path fill="#FFFFFF" d="M70.3,34.3c6.7,0,13.4,0,20.1,0c-0.4,1.9-0.8,3.6-1.1,5.4c-0.1,0.6-0.3,1.2-0.4,1.8
				c-0.1,0.7-0.3,0.9-1,0.9c-10,0-19.9,0-29.9,0c-0.3,0-0.5,0-0.9,0c0.2-0.9,0.3-1.6,0.5-2.4c2.7-12.8,5.5-25.5,8.2-38.3
				c0.1-0.6,0.3-0.8,0.9-0.8c10,0,20.1,0,30.1,0C97,1,97.2,1,97.5,1c-0.3,1.3-0.5,2.4-0.7,3.6C96.5,5.8,96.2,7,96,8.2
				C95.9,8.8,95.7,9,95,9c-6.1,0-12.1,0-18.2,0c-0.8,0-1.1,0.2-1.3,1c-0.4,2.3-1,4.5-1.4,6.8c0,0.2,0,0.4-0.1,0.6
				c6.1,0,12.2,0,18.4,0c-0.2,1.1-0.4,2-0.6,3c-0.3,1.4-0.6,2.8-0.9,4.3c-0.1,0.7-0.4,0.9-1.1,0.9c-5.5,0-11.1,0-16.6,0
				c-0.8,0-1.1,0.2-1.2,1C71.5,29.1,70.9,31.6,70.3,34.3z"/>
			<path fill="#FFFFFF" d="M211.4,1c-0.5,2.6-1.1,5-1.6,7.5c-2.4,11.1-4.7,22.1-7.1,33.2c-0.1,0.4-0.1,0.7-0.7,0.7
				c-3.5,0-7,0-10.5,0c-0.1,0-0.2,0-0.4-0.1c0.2-0.9,0.3-1.8,0.5-2.7c2.7-12.6,5.4-25.2,8.1-37.8c0.1-0.7,0.4-0.9,1.1-0.9
				c3.2,0,6.5,0,9.7,0C210.7,0.9,211,1,211.4,1z"/>
		</g>
		<g>
			<rect x="0" y="1.2" fill="#FFFFFF" width="12.1" height="1.6"/>
			<rect x="0" y="11.1" fill="#FFFFFF" width="12.1" height="1.6"/>
			<rect x="0" y="20.9" fill="#FFFFFF" width="12.1" height="1.6"/>
			<rect x="0" y="30.8" fill="#FFFFFF" width="12.1" height="1.6"/>
			<rect x="0" y="40.7" fill="#FFFFFF" width="12.1" height="1.6"/>
		</g>
		<g>
			<rect x="215.8" y="1.2" fill="#FFFFFF" width="12.1" height="1.6"/>
			<rect x="215.8" y="11.1" fill="#FFFFFF" width="12.1" height="1.6"/>
			<rect x="215.8" y="20.9" fill="#FFFFFF" width="12.1" height="1.6"/>
			<rect x="215.8" y="30.8" fill="#FFFFFF" width="12.1" height="1.6"/>
			<rect x="215.8" y="40.7" fill="#FFFFFF" width="12.1" height="1.6"/>
		</g>
	</g>
</g>
</svg>
