<?xml version="1.0" encoding="utf-8"?>
<!-- Generator: Adobe Illustrator 18.0.0, SVG Export Plug-In . SVG Version: 6.00 Build 0)  -->
<!DOCTYPE svg PUBLIC "-//W3C//DTD SVG 1.1//EN" "http://www.w3.org/Graphics/SVG/1.1/DTD/svg11.dtd">
<svg version="1.1" id="Layer_1" xmlns="http://www.w3.org/2000/svg" xmlns:xlink="http://www.w3.org/1999/xlink" x="0px" y="0px"
	 viewBox="0 337.7 612 115.8" enable-background="new 0 337.7 612 115.8" xml:space="preserve">
<g>
	<g>
		<g>
			<path fill="#404040" d="M255.6,451.5c1.1-4.6,1.9-8.9,2.7-13.4c6.7-31.7,13.4-63.4,20.1-95.1c0.5-1.9,1.1-2.7,3.2-2.7
				c12.9,0,25.8,0,38.4,0c1.6,0,2.4,0.5,3,2.1c6.2,26,12.4,52.1,18.5,78.1c0.3,0.5,0.3,1.3,0.8,1.9c0.5-2.4,1.1-4.8,1.6-7.5
				c5.1-24.2,10.2-48.3,15.6-72.8c0.3-1.1,0.3-2.1,1.9-2.1c8.3,0,16.9,0,25.2,0c0.3,0,0.5,0.3,1.1,0.3c-1.3,6.7-2.7,13.2-4.3,19.9
				c-6.4,29.8-12.6,59.6-19.1,89.4c-0.3,1.6-0.8,1.9-2.4,1.9c-12.9,0-26,0-38.9,0c-1.6,0-2.1-0.5-2.4-2.1
				c-6.2-26.6-12.4-53.4-18.5-80c-0.3-0.8-0.3-1.3-1.1-2.1c-0.8,3.5-1.6,7-2.4,10.7c-5.1,23.9-10.2,48.1-15.3,72
				c-0.3,1.1-0.5,1.6-1.6,1.6c-8.6,0-16.9,0-25.5,0C256.2,451.7,255.9,451.5,255.6,451.5z"/>
			<path fill="#404040" d="M76,416.3c0,1.9,0,3.8,0,5.4c0.3,4,2.4,7,5.9,8.6c7,3.5,18.5,1.9,24.4-3.2c2.1-1.9,3.2-4,3.8-7
				c0.5-4-1.1-7.3-4.8-8.6c-4.6-1.9-9.4-3.5-14-4.6c-7.8-2.1-15.6-4-23.1-7.5c-8.6-4-13.2-11.5-12.6-20.9
				c1.6-17.5,10.7-29,26.3-35.2c16.4-6.4,33.3-7.3,50.5-2.4c5.4,1.3,9.9,4,13.4,8.3c4.8,5.6,5.4,12.4,4,19.3c-1.1,5.6,0,4.6-5.6,4.6
				c-7.8,0-15.8,0-23.6,0c-0.8,0-1.6,0-2.7,0c0-1.3,0.3-2.1,0.3-3.2c0.3-4-1.6-6.7-5.1-8.6c-6.2-3-15.3-1.6-20.4,3.2
				c-5.4,5.1-4.6,11.5,2.1,14.5c4.3,1.9,8.9,3,13.2,4.3c7,2.1,14.5,3.8,21.2,6.4c7.3,2.7,12.6,7.8,13.7,15.8
				c1.6,11.8-1.6,22.3-9.7,30.9c-7.5,8.1-17.2,12.4-27.7,14.8c-14,3.2-27.9,3.2-41.9-0.5c-8.6-2.4-15.3-7-18.3-15.8
				c-2.1-5.9-1.6-12.1-0.5-18c0-0.5,0.8-1.1,1.3-1.1c9.7,0,19.3,0,29,0C75.7,416,75.7,416.3,76,416.3z"/>
			<path fill="#404040" d="M501.1,451.5c-11.5,0-23.1,0-34.9,0c-0.5-3.2-0.8-6.4-1.3-9.9c-0.5-3.5-0.8-7-1.3-10.2
				c0-1.1-0.5-1.3-1.6-1.3c-14.2,0-28.5,0-42.4,0c-0.8,0-1.6,0.8-1.9,1.3c-3.5,6.2-6.7,12.4-10.2,18.5c-0.3,0.8-1.3,1.6-1.9,1.6
				c-9.7,0-19.6,0-29.8,0c0.5-0.8,0.8-1.6,1.1-2.1c21.8-35.7,43.5-71.4,65.3-107.1c0.8-1.3,1.6-1.9,3.2-1.9c11,0,22,0,33.3,0
				c1.9,0,2.7,0.5,3,2.4c3.2,17.2,6.2,34.6,9.4,51.8c3.2,18.3,6.7,36.5,9.9,55.1C501.1,450.1,501.1,450.6,501.1,451.5z M460.5,408.2
				c-1.3-15.3-3-30.3-4.3-45.4c-0.3,0-0.3,0-0.5,0c-8.1,15-16.4,30.3-24.7,45.7C440.9,408.2,450.6,408.2,460.5,408.2z"/>
			<path fill="#404040" d="M188.8,430c18,0,36,0,54,0c-1.1,5.1-2.1,9.7-3,14.5c-0.3,1.6-0.8,3.2-1.1,4.8c-0.3,1.9-0.8,2.4-2.7,2.4
				c-26.9,0-53.4,0-80.3,0c-0.8,0-1.3,0-2.4,0c0.5-2.4,0.8-4.3,1.3-6.4c7.3-34.4,14.8-68.5,22-102.9c0.3-1.6,0.8-2.1,2.4-2.1
				c26.9,0,54,0,80.8,0c0.5,0.3,1.1,0.3,1.9,0.3c-0.8,3.5-1.3,6.4-1.9,9.7c-0.8,3.2-1.6,6.4-2.1,9.7c-0.3,1.6-0.8,2.1-2.7,2.1
				c-16.4,0-32.5,0-48.9,0c-2.1,0-3,0.5-3.5,2.7c-1.1,6.2-2.7,12.1-3.8,18.3c0,0.5,0,1.1-0.3,1.6c16.4,0,32.8,0,49.4,0
				c-0.5,3-1.1,5.4-1.6,8.1c-0.8,3.8-1.6,7.5-2.4,11.5c-0.3,1.9-1.1,2.4-3,2.4c-14.8,0-29.8,0-44.6,0c-2.1,0-3,0.5-3.2,2.7
				C192,416,190.4,422.7,188.8,430z"/>
			<path fill="#404040" d="M567.7,340.5c-1.3,7-3,13.4-4.3,20.1c-6.4,29.8-12.6,59.3-19.1,89.2c-0.3,1.1-0.3,1.9-1.9,1.9
				c-9.4,0-18.8,0-28.2,0c-0.3,0-0.5,0-1.1-0.3c0.5-2.4,0.8-4.8,1.3-7.3c7.3-33.8,14.5-67.7,21.8-101.5c0.3-1.9,1.1-2.4,3-2.4
				c8.6,0,17.5,0,26,0C565.8,340.3,566.6,340.5,567.7,340.5z"/>
		</g>
		<g>
			<rect y="341.1" fill="#404040" width="32.5" height="4.3"/>
			<rect y="367.7" fill="#404040" width="32.5" height="4.3"/>
			<rect y="394" fill="#404040" width="32.5" height="4.3"/>
			<rect y="420.6" fill="#404040" width="32.5" height="4.3"/>
			<rect y="447.2" fill="#404040" width="32.5" height="4.3"/>
		</g>
		<g>
			<rect x="579.5" y="341.1" fill="#404040" width="32.5" height="4.3"/>
			<rect x="579.5" y="367.7" fill="#404040" width="32.5" height="4.3"/>
			<rect x="579.5" y="394" fill="#404040" width="32.5" height="4.3"/>
			<rect x="579.5" y="420.6" fill="#404040" width="32.5" height="4.3"/>
			<rect x="579.5" y="447.2" fill="#404040" width="32.5" height="4.3"/>
		</g>
	</g>
</g>
</svg>
